<svg width="25" height="24" viewBox="0 0 25 24" fill="none" xmlns="http://www.w3.org/2000/svg">
<mask id="mask0_355_877" style="mask-type:alpha" maskUnits="userSpaceOnUse" x="0" y="0" width="25" height="24">
<rect x="0.5" width="24" height="24" fill="#D9D9D9"/>
</mask>
<g mask="url(#mask0_355_877)">
<path d="M9.5 19V17H21.5V19H9.5ZM9.5 13V11H21.5V13H9.5ZM9.5 7V5H21.5V7H9.5ZM5.5 20C4.95 20 4.47917 19.8042 4.0875 19.4125C3.69583 19.0208 3.5 18.55 3.5 18C3.5 17.45 3.69583 16.9792 4.0875 16.5875C4.47917 16.1958 4.95 16 5.5 16C6.05 16 6.52083 16.1958 6.9125 16.5875C7.30417 16.9792 7.5 17.45 7.5 18C7.5 18.55 7.30417 19.0208 6.9125 19.4125C6.52083 19.8042 6.05 20 5.5 20ZM5.5 14C4.95 14 4.47917 13.8042 4.0875 13.4125C3.69583 13.0208 3.5 12.55 3.5 12C3.5 11.45 3.69583 10.9792 4.0875 10.5875C4.47917 10.1958 4.95 10 5.5 10C6.05 10 6.52083 10.1958 6.9125 10.5875C7.30417 10.9792 7.5 11.45 7.5 12C7.5 12.55 7.30417 13.0208 6.9125 13.4125C6.52083 13.8042 6.05 14 5.5 14ZM5.5 8C4.95 8 4.47917 7.80417 4.0875 7.4125C3.69583 7.02083 3.5 6.55 3.5 6C3.5 5.45 3.69583 4.97917 4.0875 4.5875C4.47917 4.19583 4.95 4 5.5 4C6.05 4 6.52083 4.19583 6.9125 4.5875C7.30417 4.97917 7.5 5.45 7.5 6C7.5 6.55 7.30417 7.02083 6.9125 7.4125C6.52083 7.80417 6.05 8 5.5 8Z" fill="white"/>
</g>
</svg>
