<svg width="24" height="24" viewBox="0 0 24 24" fill="none" xmlns="http://www.w3.org/2000/svg">
<mask id="mask0_355_864" style="mask-type:alpha" maskUnits="userSpaceOnUse" x="0" y="0" width="24" height="24">
<rect x="1.52588e-05" width="24" height="24" fill="#D9D9D9"/>
</mask>
<g mask="url(#mask0_355_864)">
<path d="M22 6V18C22 18.55 21.8042 19.0208 21.4125 19.4125C21.0208 19.8042 20.55 20 20 20H4.00002C3.45002 20 2.97918 19.8042 2.58752 19.4125C2.19585 19.0208 2.00002 18.55 2.00002 18V6C2.00002 5.45 2.19585 4.97917 2.58752 4.5875C2.97918 4.19583 3.45002 4 4.00002 4H20C20.55 4 21.0208 4.19583 21.4125 4.5875C21.8042 4.97917 22 5.45 22 6ZM4.00002 8H20V6H4.00002V8ZM4.00002 12V18H20V12H4.00002Z" fill="white"/>
</g>
</svg>
