<svg width="25" height="24" viewBox="0 0 25 24" fill="none" xmlns="http://www.w3.org/2000/svg">
<mask id="mask0_361_951" style="mask-type:alpha" maskUnits="userSpaceOnUse" x="0" y="0" width="25" height="24">
<rect x="0.333344" width="24" height="24" fill="#D9D9D9"/>
</mask>
<g mask="url(#mask0_361_951)">
<path d="M12.3333 23C10.4667 23 8.75001 22.575 7.18334 21.725C5.61668 20.875 4.33334 19.7417 3.33334 18.325V21H1.33334V15H7.33334V17H4.85834C5.65834 18.2 6.71251 19.1667 8.02084 19.9C9.32918 20.6333 10.7667 21 12.3333 21C13.5833 21 14.7542 20.7625 15.8458 20.2875C16.9375 19.8125 17.8875 19.1708 18.6958 18.3625C19.5042 17.5542 20.1458 16.6042 20.6208 15.5125C21.0958 14.4208 21.3333 13.25 21.3333 12H23.3333C23.3333 13.5167 23.0458 14.9417 22.4708 16.275C21.8958 17.6083 21.1083 18.775 20.1083 19.775C19.1083 20.775 17.9417 21.5625 16.6083 22.1375C15.275 22.7125 13.85 23 12.3333 23ZM11.4333 19V17.7C10.65 17.5167 10.0125 17.1792 9.52084 16.6875C9.02918 16.1958 8.66668 15.55 8.43334 14.75L10.0833 14.1C10.2833 14.7833 10.5958 15.2958 11.0208 15.6375C11.4458 15.9792 11.9333 16.15 12.4833 16.15C13.0333 16.15 13.5042 16.0208 13.8958 15.7625C14.2875 15.5042 14.4833 15.1 14.4833 14.55C14.4833 14.0667 14.2792 13.675 13.8708 13.375C13.4625 13.075 12.7333 12.7333 11.6833 12.35C10.7 12 9.97918 11.5833 9.52084 11.1C9.06251 10.6167 8.83334 9.98333 8.83334 9.2C8.83334 8.51667 9.07084 7.89583 9.54584 7.3375C10.0208 6.77917 10.6667 6.41667 11.4833 6.25V5H13.2333V6.25C13.8333 6.3 14.3792 6.54167 14.8708 6.975C15.3625 7.40833 15.7 7.91667 15.8833 8.5L14.2833 9.15C14.15 8.76667 13.9333 8.44583 13.6333 8.1875C13.3333 7.92917 12.9167 7.8 12.3833 7.8C11.8 7.8 11.3542 7.925 11.0458 8.175C10.7375 8.425 10.5833 8.76667 10.5833 9.2C10.5833 9.63333 10.775 9.975 11.1583 10.225C11.5417 10.475 12.2333 10.7667 13.2333 11.1C14.4333 11.5333 15.2333 12.0417 15.6333 12.625C16.0333 13.2083 16.2333 13.85 16.2333 14.55C16.2333 15.0333 16.15 15.4583 15.9833 15.825C15.8167 16.1917 15.5958 16.5042 15.3208 16.7625C15.0458 17.0208 14.725 17.2292 14.3583 17.3875C13.9917 17.5458 13.6 17.6667 13.1833 17.75V19H11.4333ZM1.33334 12C1.33334 10.4833 1.62084 9.05833 2.19584 7.725C2.77084 6.39167 3.55834 5.225 4.55834 4.225C5.55834 3.225 6.72501 2.4375 8.05834 1.8625C9.39168 1.2875 10.8167 1 12.3333 1C14.2 1 15.9167 1.425 17.4833 2.275C19.05 3.125 20.3333 4.25833 21.3333 5.675V3H23.3333V9H17.3333V7H19.8083C19.0083 5.8 17.9542 4.83333 16.6458 4.1C15.3375 3.36667 13.9 3 12.3333 3C11.0833 3 9.91251 3.2375 8.82084 3.7125C7.72918 4.1875 6.77918 4.82917 5.97084 5.6375C5.16251 6.44583 4.52084 7.39583 4.04584 8.4875C3.57084 9.57917 3.33334 10.75 3.33334 12H1.33334Z" fill="white"/>
</g>
</svg>
