<svg width="24" height="23" viewBox="0 0 24 23" fill="none" xmlns="http://www.w3.org/2000/svg">
<mask id="mask0_164_1236" style="mask-type:alpha" maskUnits="userSpaceOnUse" x="0" y="0" width="24" height="23">
<path d="M0 5.81183C0 3.05041 2.23858 0.811829 5 0.811829H24V22.2194H5C2.23858 22.2194 0 19.9809 0 17.2194V5.81183Z" fill="#D9D9D9"/>
</mask>
<g mask="url(#mask0_164_1236)">
<path d="M5 19.5435C4.45 19.5435 3.97917 19.3688 3.5875 19.0195C3.19583 18.6701 3 18.2501 3 17.7595V5.27176C3 4.78117 3.19583 4.36119 3.5875 4.01183C3.97917 3.66247 4.45 3.48779 5 3.48779H14V7.94771H16V9.73168H21V17.7595C21 18.2501 20.8042 18.6701 20.4125 19.0195C20.0208 19.3688 19.55 19.5435 19 19.5435H5ZM6 15.9756H18L14.25 11.5156L11.25 15.0836L9 12.4076L6 15.9756ZM17 8.83969V7.05573H15V5.27176H17V3.48779H19V5.27176H21V7.05573H19V8.83969H17Z" fill="#8A8A8A"/>
</g>
</svg>
