<svg width="24" height="23" viewBox="0 0 24 23" fill="none" xmlns="http://www.w3.org/2000/svg">
<mask id="mask0_164_1241" style="mask-type:alpha" maskUnits="userSpaceOnUse" x="0" y="0" width="24" height="23">
<path d="M0 0.811829H19C21.7614 0.811829 24 3.05041 24 5.81183V17.2194C24 19.9809 21.7614 22.2194 19 22.2194H0V0.811829Z" fill="#D9D9D9"/>
</mask>
<g mask="url(#mask0_164_1241)">
<path d="M19 7.0557V5.27173H17V3.48776H19V1.7038H21V3.48776H23V5.27173H21V7.0557H19ZM11 16.4215C12.25 16.4215 13.3125 16.0313 14.1875 15.2508C15.0625 14.4703 15.5 13.5226 15.5 12.4076C15.5 11.2926 15.0625 10.3449 14.1875 9.5644C13.3125 8.78392 12.25 8.39367 11 8.39367C9.75 8.39367 8.6875 8.78392 7.8125 9.5644C6.9375 10.3449 6.5 11.2926 6.5 12.4076C6.5 13.5226 6.9375 14.4703 7.8125 15.2508C8.6875 16.0313 9.75 16.4215 11 16.4215ZM11 14.6376C10.3 14.6376 9.70833 14.422 9.225 13.9909C8.74167 13.5597 8.5 13.032 8.5 12.4076C8.5 11.7832 8.74167 11.2555 9.225 10.8243C9.70833 10.3932 10.3 10.1776 11 10.1776C11.7 10.1776 12.2917 10.3932 12.775 10.8243C13.2583 11.2555 13.5 11.7832 13.5 12.4076C13.5 13.032 13.2583 13.5597 12.775 13.9909C12.2917 14.422 11.7 14.6376 11 14.6376ZM3 19.5435C2.45 19.5435 1.97917 19.3688 1.5875 19.0194C1.19583 18.6701 1 18.2501 1 17.7595V7.0557C1 6.56511 1.19583 6.14513 1.5875 5.79577C1.97917 5.44641 2.45 5.27173 3 5.27173H6.15L8 3.48776H15V7.0557H17V8.83967H21V17.7595C21 18.2501 20.8042 18.6701 20.4125 19.0194C20.0208 19.3688 19.55 19.5435 19 19.5435H3Z" fill="#8A8A8A"/>
</g>
</svg>
