<svg width="24" height="24" viewBox="0 0 24 24" fill="none" xmlns="http://www.w3.org/2000/svg">
<mask id="mask0_164_1227" style="mask-type:alpha" maskUnits="userSpaceOnUse" x="0" y="0" width="24" height="24">
<rect width="24" height="24" fill="#D9D9D9"/>
</mask>
<g mask="url(#mask0_164_1227)">
<path d="M12 20.48C10.75 20.48 9.57914 20.252 8.48748 19.796C7.39581 19.34 6.44581 18.724 5.63748 17.948C4.82914 17.172 4.18748 16.26 3.71248 15.212C3.23748 14.164 2.99998 13.04 2.99998 11.84C2.99998 10.64 3.23748 9.51603 3.71248 8.46803C4.18748 7.42003 4.82914 6.50803 5.63748 5.73203C6.44581 4.95603 7.39581 4.34003 8.48748 3.88403C9.57914 3.42803 10.75 3.20003 12 3.20003C13.25 3.20003 14.4208 3.42803 15.5125 3.88403C16.6041 4.34003 17.5541 4.95603 18.3625 5.73203C19.1708 6.50803 19.8125 7.42003 20.2875 8.46803C20.7625 9.51603 21 10.64 21 11.84C21 13.04 20.7625 14.164 20.2875 15.212C19.8125 16.26 19.1708 17.172 18.3625 17.948C17.5541 18.724 16.6041 19.34 15.5125 19.796C14.4208 20.252 13.25 20.48 12 20.48ZM14.8 15.872L16.2 14.528L13 11.456V7.04003H11V12.224L14.8 15.872ZM5.59998 1.61603L6.99998 2.96003L2.74998 7.04003L1.34998 5.69603L5.59998 1.61603ZM18.4 1.61603L22.65 5.69603L21.25 7.04003L17 2.96003L18.4 1.61603ZM12 18.56C13.95 18.56 15.6041 17.908 16.9625 16.604C18.3208 15.3 19 13.712 19 11.84C19 9.96803 18.3208 8.38003 16.9625 7.07603C15.6041 5.77203 13.95 5.12003 12 5.12003C10.05 5.12003 8.39581 5.77203 7.03748 7.07603C5.67914 8.38003 4.99998 9.96803 4.99998 11.84C4.99998 13.712 5.67914 15.3 7.03748 16.604C8.39581 17.908 10.05 18.56 12 18.56Z" fill="#1C1B1F"/>
</g>
</svg>
