<svg width="24" height="24" viewBox="0 0 24 24" fill="none" xmlns="http://www.w3.org/2000/svg">
<mask id="mask0_164_1206" style="mask-type:alpha" maskUnits="userSpaceOnUse" x="0" y="0" width="24" height="24">
<rect width="24" height="24" fill="#D9D9D9"/>
</mask>
<g mask="url(#mask0_164_1206)">
<path d="M5 9.31999H19V7.19999H5V9.31999ZM5 24.16C4.45 24.16 3.97917 23.9524 3.5875 23.5372C3.19583 23.1221 3 22.623 3 22.04V7.19999C3 6.61699 3.19583 6.11791 3.5875 5.70274C3.97917 5.28758 4.45 5.07999 5 5.07999H6V2.95999H8V5.07999H16V2.95999H18V5.07999H19C19.55 5.07999 20.0208 5.28758 20.4125 5.70274C20.8042 6.11791 21 6.61699 21 7.19999V13.2155C20.6833 13.0565 20.3583 12.924 20.025 12.818C19.6917 12.712 19.35 12.6325 19 12.5795V11.44H5V22.04H11.3C11.4167 22.4287 11.5542 22.7997 11.7125 23.153C11.8708 23.5063 12.0583 23.842 12.275 24.16H5ZM18 25.22C16.6167 25.22 15.4375 24.7032 14.4625 23.6697C13.4875 22.6362 13 21.3863 13 19.92C13 18.4537 13.4875 17.2037 14.4625 16.1702C15.4375 15.1367 16.6167 14.62 18 14.62C19.3833 14.62 20.5625 15.1367 21.5375 16.1702C22.5125 17.2037 23 18.4537 23 19.92C23 21.3863 22.5125 22.6362 21.5375 23.6697C20.5625 24.7032 19.3833 25.22 18 25.22ZM19.675 22.4375L20.375 21.6955L18.5 19.708V16.74H17.5V20.132L19.675 22.4375Z" fill="black"/>
</g>
</svg>
