<svg width="25" height="25" viewBox="0 0 25 25" fill="none" xmlns="http://www.w3.org/2000/svg">
<mask id="mask0_479_710" style="mask-type:alpha" maskUnits="userSpaceOnUse" x="0" y="0" width="25" height="25">
<rect x="0.224854" y="0.679077" width="24" height="24" fill="#D9D9D9"/>
</mask>
<g mask="url(#mask0_479_710)">
<path d="M8.97485 23.1041C8.20819 23.1041 7.52069 22.9041 6.91235 22.5041C6.30402 22.1041 5.83319 21.5541 5.49985 20.8541C5.23319 21.2041 4.89569 21.475 4.48735 21.6666C4.07902 21.8583 3.65819 21.9541 3.22485 21.9541C2.37485 21.9541 1.66235 21.6625 1.08735 21.0791C0.512354 20.4958 0.224854 19.7875 0.224854 18.9541C0.224854 18.2375 0.458187 17.5916 0.924854 17.0166C1.39152 16.4416 1.98319 16.1125 2.69985 16.0291C2.46652 15.6958 2.28735 15.3416 2.16235 14.9666C2.03735 14.5916 1.97485 14.1958 1.97485 13.7791C1.97485 13.1125 2.14569 12.4875 2.48735 11.9041C2.82902 11.3208 3.30819 10.8458 3.92485 10.4791C4.00819 10.7791 4.12069 11.1 4.26235 11.4416C4.40402 11.7833 4.56652 12.0791 4.74985 12.3291C4.51652 12.5125 4.33319 12.7333 4.19985 12.9916C4.06652 13.25 3.99985 13.5208 3.99985 13.8041C3.99985 14.7375 4.38319 15.3125 5.14985 15.5291C5.91652 15.7458 6.64152 15.9208 7.32485 16.0541L7.79985 16.8541C7.61652 17.3875 7.45819 17.8416 7.32485 18.2166C7.19152 18.5916 7.12485 18.9291 7.12485 19.2291C7.12485 19.7291 7.30402 20.1666 7.66235 20.5416C8.02069 20.9166 8.45819 21.1041 8.97485 21.1041C9.60819 21.1041 10.1332 20.8208 10.5499 20.2541C10.9665 19.6875 11.3082 19.0208 11.5749 18.2541C11.8415 17.4875 12.0457 16.7125 12.1874 15.9291C12.329 15.1458 12.4415 14.5458 12.5249 14.1291L14.4749 14.6541C14.3249 15.4041 14.1415 16.2625 13.9249 17.2291C13.7082 18.1958 13.404 19.1166 13.0124 19.9916C12.6207 20.8666 12.104 21.6041 11.4624 22.2041C10.8207 22.8041 9.99152 23.1041 8.97485 23.1041ZM10.3249 16.0041C9.55819 15.3208 8.86235 14.6833 8.23735 14.0916C7.61235 13.5 7.07485 12.925 6.62485 12.3666C6.17485 11.8083 5.82902 11.25 5.58735 10.6916C5.34569 10.1333 5.22485 9.55413 5.22485 8.95413C5.22485 7.87079 5.59569 6.95829 6.33735 6.21663C7.07902 5.47496 7.99152 5.10413 9.07485 5.10413C9.14152 5.10413 9.19985 5.10829 9.24985 5.11663C9.29985 5.12496 9.35819 5.12913 9.42485 5.12913C9.35819 4.96246 9.30819 4.79579 9.27485 4.62913C9.24152 4.46246 9.22485 4.28746 9.22485 4.10413C9.22485 3.27079 9.51652 2.56246 10.0999 1.97913C10.6832 1.39579 11.3915 1.10413 12.2249 1.10413C13.0582 1.10413 13.7665 1.39579 14.3499 1.97913C14.9332 2.56246 15.2249 3.27079 15.2249 4.10413C15.2249 4.28746 15.2082 4.45829 15.1749 4.61663C15.1415 4.77496 15.0915 4.93746 15.0249 5.10413H15.3749C16.3749 5.10413 17.2249 5.42496 17.9249 6.06663C18.6249 6.70829 19.0415 7.50413 19.1749 8.45413C18.8749 8.40413 18.5374 8.37913 18.1624 8.37913C17.7874 8.37913 17.4415 8.39579 17.1249 8.42913C17.0082 8.04579 16.7957 7.72913 16.4874 7.47913C16.179 7.22913 15.8082 7.10413 15.3749 7.10413C14.7915 7.10413 14.3374 7.27496 14.0124 7.61663C13.6874 7.95829 13.2415 8.45413 12.6749 9.10413H11.7499C11.1665 8.42079 10.7124 7.91663 10.3874 7.59163C10.0624 7.26663 9.62485 7.10413 9.07485 7.10413C8.54152 7.10413 8.09985 7.27913 7.74985 7.62913C7.39985 7.97913 7.22485 8.42079 7.22485 8.95413C7.22485 9.33746 7.33319 9.73329 7.54985 10.1416C7.76652 10.55 8.07069 10.9833 8.46235 11.4416C8.85402 11.9 9.32902 12.3875 9.88735 12.9041C10.4457 13.4208 11.0665 13.9791 11.7499 14.5791L10.3249 16.0041ZM15.4499 23.1041C15.0832 23.1041 14.7207 23.0541 14.3624 22.9541C14.004 22.8541 13.6582 22.6958 13.3249 22.4791C13.5082 22.2458 13.6915 21.9708 13.8749 21.6541C14.0582 21.3375 14.2249 21.0458 14.3749 20.7791C14.5582 20.8958 14.7415 20.9791 14.9249 21.0291C15.1082 21.0791 15.2915 21.1041 15.4749 21.1041C16.0082 21.1041 16.454 20.9166 16.8124 20.5416C17.1707 20.1666 17.3499 19.7208 17.3499 19.2041C17.3499 18.8875 17.2832 18.5458 17.1499 18.1791C17.0165 17.8125 16.8582 17.3625 16.6749 16.8291L17.1499 16.0291C17.8499 15.8958 18.579 15.7208 19.3374 15.5041C20.0957 15.2875 20.4749 14.7125 20.4749 13.7791C20.4749 13.1125 20.229 12.6291 19.7374 12.3291C19.2457 12.0291 18.7082 11.8791 18.1249 11.8791C17.4249 11.8791 16.6082 12.0125 15.6749 12.2791C14.7415 12.5458 13.6499 12.8875 12.3999 13.3041L11.8749 11.3541C13.1749 10.9375 14.3332 10.5875 15.3499 10.3041C16.3665 10.0208 17.2999 9.87913 18.1499 9.87913C19.2999 9.87913 20.3082 10.2208 21.1749 10.9041C22.0415 11.5875 22.4749 12.5458 22.4749 13.7791C22.4749 14.1958 22.4124 14.5916 22.2874 14.9666C22.1624 15.3416 21.9832 15.6958 21.7499 16.0291C22.4665 16.1125 23.0582 16.4416 23.5249 17.0166C23.9915 17.5916 24.2249 18.2375 24.2249 18.9541C24.2249 19.7875 23.9374 20.4958 23.3624 21.0791C22.7874 21.6625 22.0749 21.9541 21.2249 21.9541C20.7915 21.9541 20.3707 21.8583 19.9624 21.6666C19.554 21.475 19.2165 21.2041 18.9499 20.8541C18.6165 21.5541 18.1457 22.1041 17.5374 22.5041C16.929 22.9041 16.2332 23.1041 15.4499 23.1041Z" fill="#1C1B1F"/>
</g>
</svg>
