<svg width="31" height="30" viewBox="0 0 31 30" fill="none" xmlns="http://www.w3.org/2000/svg">
<mask id="mask0_225_744" style="mask-type:alpha" maskUnits="userSpaceOnUse" x="0" y="0" width="31" height="30">
<rect x="0.5" width="30" height="30" fill="#D9D9D9"/>
</mask>
<g mask="url(#mask0_225_744)">
<path d="M19.0313 13.75C18.8438 13.2083 18.5573 12.7344 18.1719 12.3281C17.7865 11.9219 17.3229 11.625 16.7812 11.4375V2.5625C19.7604 2.85417 22.2969 4.04687 24.3906 6.14062C26.4844 8.23438 27.6771 10.7708 27.9688 13.75H19.0313ZM14.2812 27.4375C11.0729 27.125 8.39583 25.7813 6.25 23.4063C4.10417 21.0313 3.03125 18.2292 3.03125 15C3.03125 11.7708 4.10417 8.96875 6.25 6.59375C8.39583 4.21875 11.0729 2.875 14.2812 2.5625V11.4375C13.5312 11.7083 12.9271 12.1719 12.4688 12.8281C12.0104 13.4844 11.7812 14.2083 11.7812 15C11.7812 15.7917 12.0104 16.5052 12.4688 17.1406C12.9271 17.776 13.5312 18.2292 14.2812 18.5V27.4375ZM16.7812 27.4375V18.5C17.3229 18.3125 17.7865 18.026 18.1719 17.6406C18.5573 17.2552 18.8438 16.7917 19.0313 16.25H27.9688C27.6771 19.2292 26.4844 21.7656 24.3906 23.8594C22.2969 25.9531 19.7604 27.1458 16.7812 27.4375Z" fill="#ABABAB"/>
</g>
</svg>
