<svg width="25" height="24" viewBox="0 0 25 24" fill="none" xmlns="http://www.w3.org/2000/svg">
<mask id="mask0_164_1400" style="mask-type:alpha" maskUnits="userSpaceOnUse" x="0" y="0" width="25" height="24">
<rect x="0.666748" width="24" height="24" fill="#D9D9D9"/>
</mask>
<g mask="url(#mask0_164_1400)">
<path d="M22.6667 6V18C22.6667 18.55 22.4709 19.0208 22.0792 19.4125C21.6876 19.8042 21.2167 20 20.6667 20H4.66675C4.11675 20 3.64591 19.8042 3.25425 19.4125C2.86258 19.0208 2.66675 18.55 2.66675 18V6C2.66675 5.45 2.86258 4.97917 3.25425 4.5875C3.64591 4.19583 4.11675 4 4.66675 4H20.6667C21.2167 4 21.6876 4.19583 22.0792 4.5875C22.4709 4.97917 22.6667 5.45 22.6667 6ZM4.66675 8H20.6667V6H4.66675V8ZM4.66675 12V18H20.6667V12H4.66675Z" fill="white"/>
</g>
</svg>
