<svg width="24" height="24" viewBox="0 0 24 24" fill="none" xmlns="http://www.w3.org/2000/svg">
<mask id="mask0_164_1220" style="mask-type:alpha" maskUnits="userSpaceOnUse" x="0" y="0" width="24" height="24">
<rect width="24" height="24" fill="#D9D9D9"/>
</mask>
<g mask="url(#mask0_164_1220)">
<path d="M1 24.32V21.184C1 20.5494 1.14583 19.966 1.4375 19.434C1.72917 18.902 2.11667 18.496 2.6 18.216C3.63333 17.6374 4.68333 17.2034 5.75 16.914C6.81667 16.6247 7.9 16.48 9 16.48C10.1 16.48 11.1833 16.6247 12.25 16.914C13.3167 17.2034 14.3667 17.6374 15.4 18.216C15.8833 18.496 16.2708 18.902 16.5625 19.434C16.8542 19.966 17 20.5494 17 21.184V24.32H1ZM19 24.32V20.96C19 20.1387 18.7958 19.35 18.3875 18.594C17.9792 17.838 17.4 17.1894 16.65 16.648C17.5 16.76 18.3 16.9514 19.05 17.222C19.8 17.4927 20.5 17.824 21.15 18.216C21.75 18.5894 22.2083 19.0047 22.525 19.462C22.8417 19.9194 23 20.4187 23 20.96V24.32H19ZM9 15.36C7.9 15.36 6.95833 14.9214 6.175 14.044C5.39167 13.1667 5 12.112 5 10.88C5 9.64802 5.39167 8.59336 6.175 7.71602C6.95833 6.83869 7.9 6.40002 9 6.40002C10.1 6.40002 11.0417 6.83869 11.825 7.71602C12.6083 8.59336 13 9.64802 13 10.88C13 12.112 12.6083 13.1667 11.825 14.044C11.0417 14.9214 10.1 15.36 9 15.36ZM19 10.88C19 12.112 18.6083 13.1667 17.825 14.044C17.0417 14.9214 16.1 15.36 15 15.36C14.8167 15.36 14.5833 15.3367 14.3 15.29C14.0167 15.2434 13.7833 15.192 13.6 15.136C14.05 14.5387 14.3958 13.876 14.6375 13.148C14.8792 12.42 15 11.664 15 10.88C15 10.096 14.8792 9.34002 14.6375 8.61202C14.3958 7.88402 14.05 7.22136 13.6 6.62402C13.8333 6.53069 14.0667 6.47002 14.3 6.44202C14.5333 6.41402 14.7667 6.40002 15 6.40002C16.1 6.40002 17.0417 6.83869 17.825 7.71602C18.6083 8.59336 19 9.64802 19 10.88Z" fill="#1C1B1F"/>
</g>
</svg>
