<svg width="24" height="24" viewBox="0 0 24 24" fill="none" xmlns="http://www.w3.org/2000/svg">
<mask id="mask0_509_722" style="mask-type:alpha" maskUnits="userSpaceOnUse" x="0" y="0" width="24" height="24">
<rect width="24" height="24" fill="#D9D9D9"/>
</mask>
<g mask="url(#mask0_509_722)">
<path d="M14.8249 11C14.6749 10.5667 14.4457 10.1875 14.1374 9.86249C13.8291 9.53749 13.4582 9.29999 13.0249 9.14999V2.04999C15.4082 2.28332 17.4374 3.23749 19.1124 4.91249C20.7874 6.58749 21.7416 8.61665 21.9749 11H14.8249ZM11.0249 21.95C8.45824 21.7 6.31657 20.625 4.5999 18.725C2.88324 16.825 2.0249 14.5833 2.0249 12C2.0249 9.41665 2.88324 7.17499 4.5999 5.27499C6.31657 3.37499 8.45824 2.29999 11.0249 2.04999V9.14999C10.4249 9.36665 9.94157 9.73749 9.5749 10.2625C9.20824 10.7875 9.0249 11.3667 9.0249 12C9.0249 12.6333 9.20824 13.2042 9.5749 13.7125C9.94157 14.2208 10.4249 14.5833 11.0249 14.8V21.95ZM13.0249 21.95V14.8C13.4582 14.65 13.8291 14.4208 14.1374 14.1125C14.4457 13.8042 14.6749 13.4333 14.8249 13H21.9749C21.7416 15.3833 20.7874 17.4125 19.1124 19.0875C17.4374 20.7625 15.4082 21.7167 13.0249 21.95Z" fill="#1C1B1F"/>
</g>
</svg>
