<svg width="41" height="40" viewBox="0 0 48 47" fill="none" xmlns="http://www.w3.org/2000/svg">
<mask id="path-1-inside-1_225_756" fill="white">
<path d="M25.0024 24.3513L33.1907 24.3513C33.3313 24.3623 33.4725 24.3438 33.6057 24.2972C33.7389 24.2505 33.861 24.1766 33.9645 24.0801C34.0679 23.9836 34.1505 23.8666 34.207 23.7364C34.2634 23.6062 34.2926 23.4657 34.2926 23.3236C34.2926 23.1816 34.2634 23.041 34.207 22.9109C34.1505 22.7807 34.0679 22.6637 33.9645 22.5672C33.861 22.4707 33.7389 22.3968 33.6057 22.3501C33.4725 22.3034 33.3313 22.285 33.1907 22.2959L25.0024 22.2959L25.0024 14.0452C24.9825 13.7864 24.8665 13.5446 24.6774 13.3683C24.4883 13.1919 24.2401 13.0939 23.9825 13.0939C23.7248 13.0939 23.4767 13.1919 23.2876 13.3683C23.0985 13.5446 22.9824 13.7864 22.9626 14.0452L22.9626 22.2959L14.7743 22.2959C14.504 22.2967 14.2451 22.4053 14.054 22.5978C13.8629 22.7904 13.7552 23.0513 13.7544 23.3236C13.7552 23.5959 13.8629 23.8569 14.054 24.0494C14.2451 24.242 14.504 24.3505 14.7743 24.3513L22.9626 24.3513L22.9626 32.6021C22.9634 32.8744 23.0711 33.1353 23.2622 33.3279C23.4533 33.5204 23.7122 33.6289 23.9825 33.6298C24.2527 33.6289 24.5117 33.5204 24.7028 33.3279C24.8939 33.1353 25.0016 32.8744 25.0024 32.6021L25.0024 24.3513Z"/>
</mask>
<path d="M25.0024 24.3513L33.1907 24.3513C33.3313 24.3623 33.4725 24.3438 33.6057 24.2972C33.7389 24.2505 33.861 24.1766 33.9645 24.0801C34.0679 23.9836 34.1505 23.8666 34.207 23.7364C34.2634 23.6062 34.2926 23.4657 34.2926 23.3236C34.2926 23.1816 34.2634 23.041 34.207 22.9109C34.1505 22.7807 34.0679 22.6637 33.9645 22.5672C33.861 22.4707 33.7389 22.3968 33.6057 22.3501C33.4725 22.3034 33.3313 22.285 33.1907 22.2959L25.0024 22.2959L25.0024 14.0452C24.9825 13.7864 24.8665 13.5446 24.6774 13.3683C24.4883 13.1919 24.2401 13.0939 23.9825 13.0939C23.7248 13.0939 23.4767 13.1919 23.2876 13.3683C23.0985 13.5446 22.9824 13.7864 22.9626 14.0452L22.9626 22.2959L14.7743 22.2959C14.504 22.2967 14.2451 22.4053 14.054 22.5978C13.8629 22.7904 13.7552 23.0513 13.7544 23.3236C13.7552 23.5959 13.8629 23.8569 14.054 24.0494C14.2451 24.242 14.504 24.3505 14.7743 24.3513L22.9626 24.3513L22.9626 32.6021C22.9634 32.8744 23.0711 33.1353 23.2622 33.3279C23.4533 33.5204 23.7122 33.6289 23.9825 33.6298C24.2527 33.6289 24.5117 33.5204 24.7028 33.3279C24.8939 33.1353 25.0016 32.8744 25.0024 32.6021L25.0024 24.3513Z" fill="black"/>
<path d="M25.0024 24.3513L25.0024 21.8418L22.5119 21.8418L22.5119 24.3513L25.0024 24.3513ZM33.1907 24.3513L33.3828 21.8493L33.2869 21.8418L33.1907 21.8418L33.1907 24.3513ZM33.1907 22.2959L33.1907 24.8054L33.2869 24.8054L33.3828 24.7979L33.1907 22.2959ZM25.0024 22.2959L22.5119 22.2959L22.5119 24.8054L25.0024 24.8054L25.0024 22.2959ZM25.0024 14.0452L27.4929 14.0452L27.4929 13.9483L27.4855 13.8516L25.0024 14.0452ZM22.9626 14.0452L20.4795 13.8516L20.4721 13.9483L20.4721 14.0452L22.9626 14.0452ZM22.9626 22.2959L22.9626 24.8054L25.453 24.8054L25.453 22.2959L22.9626 22.2959ZM14.7743 22.2959L14.7743 19.7864L14.7669 19.7865L14.7743 22.2959ZM13.7544 23.3236L11.2639 23.3162L11.2639 23.3236L11.2639 23.3311L13.7544 23.3236ZM14.7743 24.3513L14.7669 26.8608L14.7743 26.8608L14.7743 24.3513ZM22.9626 24.3513L25.453 24.3513L25.453 21.8418L22.9626 21.8418L22.9626 24.3513ZM22.9626 32.6021L20.4721 32.6021L20.4721 32.6095L22.9626 32.6021ZM23.9825 33.6298L23.9751 36.1392L23.9825 36.1392L23.9899 36.1392L23.9825 33.6298ZM25.0024 32.6021L27.4929 32.6095L27.4929 32.6021L25.0024 32.6021ZM25.0024 26.8608L33.1907 26.8608L33.1907 21.8418L25.0024 21.8418L25.0024 26.8608ZM32.9986 26.8533C33.4814 26.891 33.9667 26.8276 34.424 26.6673L32.7874 21.927C32.9784 21.8601 33.1811 21.8336 33.3828 21.8493L32.9986 26.8533ZM34.424 26.6673C34.8813 26.507 35.3009 26.2532 35.6562 25.9217L32.2727 22.2384C32.4212 22.1 32.5964 21.994 32.7874 21.927L34.424 26.6673ZM35.6562 25.9217C36.0116 25.5903 36.2951 25.1884 36.489 24.7413L31.9249 22.7315C32.0059 22.5447 32.1243 22.3769 32.2727 22.2384L35.6562 25.9217ZM36.489 24.7413C36.6829 24.2942 36.783 23.8116 36.783 23.3236L31.8021 23.3236C31.8021 23.1198 31.8439 22.9182 31.9249 22.7315L36.489 24.7413ZM36.783 23.3236C36.783 22.8357 36.6829 22.353 36.489 21.906L31.9249 23.9158C31.8439 23.729 31.8021 23.5274 31.8021 23.3236L36.783 23.3236ZM36.489 21.906C36.2951 21.4589 36.0116 21.057 35.6562 20.7255L32.2727 24.4088C32.1243 24.2704 32.0059 24.1025 31.9249 23.9158L36.489 21.906ZM35.6562 20.7255C35.3009 20.3941 34.8814 20.1403 34.424 19.9799L32.7874 24.7202C32.5964 24.6533 32.4212 24.5472 32.2727 24.4088L35.6562 20.7255ZM34.424 19.9799C33.9667 19.8196 33.4814 19.7563 32.9986 19.7939L33.3828 24.7979C33.1811 24.8137 32.9784 24.7872 32.7874 24.7202L34.424 19.9799ZM33.1907 19.7865L25.0024 19.7865L25.0024 24.8054L33.1907 24.8054L33.1907 19.7865ZM27.4929 22.2959L27.4929 14.0452L22.5119 14.0452L22.5119 22.2959L27.4929 22.2959ZM27.4855 13.8516C27.4172 12.9626 27.0185 12.1323 26.3691 11.5266L22.9856 15.2099C22.7144 14.9569 22.5478 14.6101 22.5193 14.2388L27.4855 13.8516ZM26.3691 11.5266C25.7197 10.9209 24.8674 10.5845 23.9825 10.5845L23.9825 15.6034C23.6129 15.6034 23.2569 15.4629 22.9856 15.2099L26.3691 11.5266ZM23.9825 10.5845C23.0976 10.5845 22.2453 10.9209 21.5958 11.5266L24.9793 15.2099C24.7081 15.4629 24.3521 15.6034 23.9825 15.6034L23.9825 10.5845ZM21.5958 11.5266C20.9464 12.1323 20.5478 12.9626 20.4795 13.8516L25.4456 14.2388C25.4171 14.6101 25.2506 14.9569 24.9793 15.2099L21.5958 11.5266ZM20.4721 14.0452L20.4721 22.2959L25.453 22.2959L25.453 14.0452L20.4721 14.0452ZM22.9626 19.7865L14.7743 19.7865L14.7743 24.8054L22.9626 24.8054L22.9626 19.7865ZM14.7669 19.7865C13.8387 19.7892 12.9493 20.162 12.2929 20.8234L15.815 24.3723C15.5409 24.6485 15.1694 24.8042 14.7817 24.8054L14.7669 19.7865ZM12.2929 20.8234C11.6366 21.4847 11.2666 22.3809 11.2639 23.3162L16.2448 23.3311C16.2437 23.7217 16.0892 24.0961 15.815 24.3723L12.2929 20.8234ZM11.2639 23.3311C11.2666 24.2664 11.6366 25.1625 12.2929 25.8239L15.815 22.275C16.0892 22.5512 16.2437 22.9255 16.2448 23.3162L11.2639 23.3311ZM12.2929 25.8239C12.9493 26.4852 13.8387 26.858 14.7669 26.8608L14.7817 21.8419C15.1694 21.843 15.5409 21.9987 15.815 22.275L12.2929 25.8239ZM14.7743 26.8608L22.9626 26.8608L22.9626 21.8418L14.7743 21.8418L14.7743 26.8608ZM20.4721 24.3513L20.4721 32.6021L25.453 32.6021L25.453 24.3513L20.4721 24.3513ZM20.4721 32.6095C20.4749 33.5448 20.8448 34.441 21.5011 35.1023L25.0232 31.5534C25.2974 31.8296 25.4519 32.2039 25.453 32.5946L20.4721 32.6095ZM21.5011 35.1023C22.1575 35.7637 23.0469 36.1364 23.9751 36.1392L23.9899 31.1203C24.3776 31.1214 24.7491 31.2772 25.0232 31.5534L21.5011 35.1023ZM23.9899 36.1392C24.9181 36.1364 25.8075 35.7637 26.4638 35.1023L22.9417 31.5534C23.2159 31.2772 23.5874 31.1214 23.9751 31.1203L23.9899 36.1392ZM26.4638 35.1023C27.1202 34.441 27.4901 33.5448 27.4929 32.6095L22.5119 32.5946C22.5131 32.2039 22.6676 31.8296 22.9417 31.5534L26.4638 35.1023ZM27.4929 32.6021L27.4929 24.3513L22.5119 24.3513L22.5119 32.6021L27.4929 32.6021Z" fill="#FCFCFC" mask="url(#path-1-inside-1_225_756)"/>
</svg>
