<svg width="30" height="30" viewBox="0 0 30 30" fill="none" xmlns="http://www.w3.org/2000/svg">
<path fill-rule="evenodd" clip-rule="evenodd" d="M20.625 8.82875C20.625 12.8225 18.2125 16.25 15 16.25C11.785 16.25 9.375 12.8225 9.375 8.8275C9.375 4.835 11.45 2.5 15 2.5C18.55 2.5 20.625 4.83375 20.625 8.82875ZM5.1275 25.1775C5.60875 25.75 7.68125 27.5 15 27.5C22.3188 27.5 24.39 25.75 24.8725 25.1787C24.9173 25.1238 24.9503 25.0604 24.9697 24.9922C24.989 24.9241 24.9942 24.8527 24.985 24.7825C24.875 23.68 23.8825 18.75 15 18.75C6.1175 18.75 5.125 23.68 5.01375 24.7825C5.0047 24.8528 5.01012 24.9242 5.02968 24.9924C5.04924 25.0605 5.08253 25.1227 5.1275 25.1775Z" fill="#ABABAB"/>
</svg>
