<svg width="24" height="24" viewBox="0 0 24 24" fill="none" xmlns="http://www.w3.org/2000/svg">
<mask id="mask0_164_1189" style="mask-type:alpha" maskUnits="userSpaceOnUse" x="0" y="0" width="24" height="24">
<rect width="24" height="24" fill="#D9D9D9"/>
</mask>
<g mask="url(#mask0_164_1189)">
<path d="M10.6 19.6C10.6 18.088 10.7209 17.0007 10.9625 16.338C11.2042 15.6753 11.7167 14.952 12.5001 14.168C13.1834 13.496 13.7042 12.9127 14.0626 12.418C14.4209 11.9233 14.6001 11.3587 14.6001 10.724C14.6001 9.95868 14.3709 9.32401 13.9126 8.82001C13.4542 8.31601 12.8167 8.06401 12 8.06401C11.15 8.06401 10.5042 8.35334 10.0625 8.93201C9.62088 9.51068 9.30838 10.0987 9.12505 10.696L6.55005 9.46401C6.90005 8.26934 7.54172 7.23334 8.47505 6.35601C9.40838 5.47868 10.5834 5.04001 12 5.04001C13.7501 5.04001 15.0959 5.58601 16.0376 6.67801C16.9792 7.77001 17.4501 9.08134 17.4501 10.612C17.4501 11.5453 17.2709 12.3433 16.9126 13.006C16.5542 13.6687 15.9917 14.42 15.2251 15.26C14.4084 16.1373 13.9125 16.8047 13.7376 17.262C13.5626 17.7193 13.4751 18.4987 13.4751 19.6H10.6ZM12 26.32C11.45 26.32 10.9792 26.1007 10.5875 25.662C10.1959 25.2233 10 24.696 10 24.08C10 23.464 10.1959 22.9367 10.5875 22.498C10.9792 22.0593 11.45 21.84 12 21.84C12.55 21.84 13.0209 22.0593 13.4126 22.498C13.8042 22.9367 14.0001 23.464 14.0001 24.08C14.0001 24.696 13.8042 25.2233 13.4126 25.662C13.0209 26.1007 12.55 26.32 12 26.32Z" fill="#999999"/>
</g>
</svg>
