<svg width="22" height="22" viewBox="0 0 22 22" fill="none" xmlns="http://www.w3.org/2000/svg">
<mask id="mask0_347_710" style="mask-type:alpha" maskUnits="userSpaceOnUse" x="0" y="0" width="22" height="22">
<rect width="22" height="22" fill="#D9D9D9"/>
</mask>
<g mask="url(#mask0_347_710)">
<path d="M18.15 20.7167L14.3 16.9125C13.7653 17.0806 13.2267 17.2066 12.6844 17.2906C12.142 17.3747 11.5806 17.4167 11 17.4167C8.69306 17.4167 6.63819 16.7788 4.83542 15.5031C3.03264 14.2274 1.72639 12.5736 0.916667 10.5417C1.2375 9.73194 1.64236 8.97951 2.13125 8.28437C2.62014 7.58924 3.17778 6.96667 3.80417 6.41667L1.28333 3.85L2.56667 2.56667L19.4333 19.4333L18.15 20.7167ZM11 14.6667C11.1681 14.6667 11.3247 14.659 11.4698 14.6438C11.6149 14.6285 11.7715 14.5979 11.9396 14.5521L6.98958 9.60208C6.94375 9.77014 6.91319 9.92674 6.89792 10.0719C6.88264 10.217 6.875 10.3736 6.875 10.5417C6.875 11.6875 7.27604 12.6615 8.07813 13.4635C8.88021 14.2656 9.85417 14.6667 11 14.6667ZM17.6917 15.0792L14.7812 12.1917C14.8882 11.9319 14.9722 11.6684 15.0333 11.401C15.0944 11.1337 15.125 10.8472 15.125 10.5417C15.125 9.39583 14.724 8.42187 13.9219 7.61979C13.1198 6.81771 12.1458 6.41667 11 6.41667C10.6944 6.41667 10.408 6.44722 10.1406 6.50833C9.87326 6.56944 9.60972 6.66111 9.35 6.78333L7.0125 4.44583C7.63889 4.18611 8.28056 3.99132 8.9375 3.86146C9.59444 3.7316 10.2819 3.66667 11 3.66667C13.3069 3.66667 15.3618 4.30451 17.1646 5.58021C18.9674 6.8559 20.2736 8.50972 21.0833 10.5417C20.7319 11.4431 20.2698 12.2795 19.6969 13.051C19.124 13.8226 18.4556 14.4986 17.6917 15.0792ZM13.4521 10.8625L10.7021 8.1125C11.1299 8.03611 11.5233 8.07049 11.8823 8.21562C12.2413 8.36076 12.5507 8.57083 12.8104 8.84583C13.0701 9.12083 13.2573 9.43785 13.3719 9.79687C13.4865 10.1559 13.5132 10.5111 13.4521 10.8625Z" fill="#8A8A8C"/>
</g>
</svg>
