<svg width="23" height="22" viewBox="0 0 23 22" fill="none" xmlns="http://www.w3.org/2000/svg">
<mask id="mask0_164_787" style="mask-type:alpha" maskUnits="userSpaceOnUse" x="0" y="0" width="23" height="22">
<rect x="0.160675" width="21.9391" height="22" fill="#D9D9D9"/>
</mask>
<g mask="url(#mask0_164_787)">
<path d="M11.1302 14.6667C12.2729 14.6667 13.2441 14.2656 14.044 13.4635C14.8438 12.6614 15.2438 11.6875 15.2438 10.5417C15.2438 9.39582 14.8438 8.42186 14.044 7.61978C13.2441 6.8177 12.2729 6.41666 11.1302 6.41666C9.98753 6.41666 9.01627 6.8177 8.21641 7.61978C7.41655 8.42186 7.01662 9.39582 7.01662 10.5417C7.01662 11.6875 7.41655 12.6614 8.21641 13.4635C9.01627 14.2656 9.98753 14.6667 11.1302 14.6667ZM11.1302 13.0167C10.4446 13.0167 9.86184 12.776 9.38192 12.2948C8.90201 11.8135 8.66205 11.2292 8.66205 10.5417C8.66205 9.85416 8.90201 9.26978 9.38192 8.78853C9.86184 8.30728 10.4446 8.06666 11.1302 8.06666C11.8158 8.06666 12.3985 8.30728 12.8785 8.78853C13.3584 9.26978 13.5983 9.85416 13.5983 10.5417C13.5983 11.2292 13.3584 11.8135 12.8785 12.2948C12.3985 12.776 11.8158 13.0167 11.1302 13.0167ZM11.1302 17.4167C8.90582 17.4167 6.8795 16.7941 5.05125 15.5489C3.22299 14.3038 1.89751 12.6347 1.07479 10.5417C1.89751 8.4486 3.22299 6.7795 5.05125 5.53437C6.8795 4.28923 8.90582 3.66666 11.1302 3.66666C13.3546 3.66666 15.3809 4.28923 17.2091 5.53437C19.0374 6.7795 20.3629 8.4486 21.1856 10.5417C20.3629 12.6347 19.0374 14.3038 17.2091 15.5489C15.3809 16.7941 13.3546 17.4167 11.1302 17.4167Z" fill="#8A8A8C"/>
</g>
</svg>
