<svg width="24" height="24" viewBox="0 0 24 24" fill="none" xmlns="http://www.w3.org/2000/svg">
<mask id="mask0_164_1213" style="mask-type:alpha" maskUnits="userSpaceOnUse" x="0" y="0" width="24" height="24">
<rect width="24" height="24" fill="#D9D9D9"/>
</mask>
<g mask="url(#mask0_164_1213)">
<path d="M6 22.88C4.9 22.88 3.95833 22.457 3.175 21.611C2.39167 20.765 2 19.748 2 18.56V9.92001C2 8.73201 2.39167 7.71501 3.175 6.86901C3.95833 6.02301 4.9 5.60001 6 5.60001H18C19.1 5.60001 20.0417 6.02301 20.825 6.86901C21.6083 7.71501 22 8.73201 22 9.92001V18.56C22 19.748 21.6083 20.765 20.825 21.611C20.0417 22.457 19.1 22.88 18 22.88H6ZM6 9.92001H18C18.3667 9.92001 18.7167 9.96501 19.05 10.055C19.3833 10.145 19.7 10.289 20 10.487V9.92001C20 9.32601 19.8042 8.81751 19.4125 8.39451C19.0208 7.97151 18.55 7.76001 18 7.76001H6C5.45 7.76001 4.97917 7.97151 4.5875 8.39451C4.19583 8.81751 4 9.32601 4 9.92001V10.487C4.3 10.289 4.61667 10.145 4.95 10.055C5.28333 9.96501 5.63333 9.92001 6 9.92001ZM4.15 13.43L15.275 16.346C15.425 16.382 15.575 16.382 15.725 16.346C15.875 16.31 16.0167 16.238 16.15 16.13L19.625 12.998C19.4417 12.728 19.2083 12.5075 18.925 12.3365C18.6417 12.1655 18.3333 12.08 18 12.08H6C5.56667 12.08 5.1875 12.2015 4.8625 12.4445C4.5375 12.6875 4.3 13.016 4.15 13.43Z" fill="#1C1B1F"/>
</g>
</svg>
