<svg width="31" height="30" viewBox="0 0 31 30" fill="none" xmlns="http://www.w3.org/2000/svg">
<path d="M26.75 3.75H5.5C4.83696 3.75 4.20107 4.01339 3.73223 4.48223C3.26339 4.95107 3 5.58696 3 6.25V23.75C3 24.413 3.26339 25.0489 3.73223 25.5178C4.20107 25.9866 4.83696 26.25 5.5 26.25H25.5C26.163 26.25 26.7989 25.9866 27.2678 25.5178C27.7366 25.0489 28 24.413 28 23.75V10C28 9.66848 27.8683 9.35054 27.6339 9.11612C27.3995 8.8817 27.0815 8.75 26.75 8.75H6.75C6.41848 8.75 6.10054 8.6183 5.86612 8.38388C5.6317 8.14946 5.5 7.83152 5.5 7.5C5.5 7.16848 5.6317 6.85054 5.86612 6.61612C6.10054 6.3817 6.41848 6.25 6.75 6.25H28V5C28 4.66848 27.8683 4.35054 27.6339 4.11612C27.3995 3.8817 27.0815 3.75 26.75 3.75ZM23.625 15.625C23.9958 15.625 24.3583 15.735 24.6667 15.941C24.975 16.147 25.2154 16.4399 25.3573 16.7825C25.4992 17.1251 25.5363 17.5021 25.464 17.8658C25.3916 18.2295 25.213 18.5636 24.9508 18.8258C24.6886 19.088 24.3545 19.2666 23.9908 19.339C23.6271 19.4113 23.2501 19.3742 22.9075 19.2323C22.5649 19.0904 22.272 18.85 22.066 18.5417C21.86 18.2334 21.75 17.8708 21.75 17.5C21.75 17.0027 21.9475 16.5258 22.2992 16.1742C22.6508 15.8225 23.1277 15.625 23.625 15.625Z" fill="#ABABAB"/>
</svg>
