<svg width="21" height="20" viewBox="0 0 21 20" fill="none" xmlns="http://www.w3.org/2000/svg">
<mask id="mask0_164_775" style="mask-type:alpha" maskUnits="userSpaceOnUse" x="0" y="0" width="21" height="20">
<rect x="0.0858765" width="20" height="20" fill="#D9D9D9"/>
</mask>
<g mask="url(#mask0_164_775)">
<path d="M3.41921 15.8333V14.1667H5.08588V8.33333C5.08588 7.18055 5.4331 6.15625 6.12754 5.26041C6.82199 4.36458 7.72476 3.77778 8.83588 3.5V2.91666C8.83588 2.56944 8.9574 2.2743 9.20046 2.03125C9.44351 1.78819 9.73865 1.66666 10.0859 1.66666C10.4331 1.66666 10.7282 1.78819 10.9713 2.03125C11.2143 2.2743 11.3359 2.56944 11.3359 2.91666V3.5C12.447 3.77778 13.3498 4.36458 14.0442 5.26041C14.7387 6.15625 15.0859 7.18055 15.0859 8.33333V14.1667H16.7525V15.8333H3.41921ZM10.0859 18.3333C9.62754 18.3333 9.23518 18.1701 8.90879 17.8437C8.5824 17.5174 8.41921 17.125 8.41921 16.6667H11.7525C11.7525 17.125 11.5893 17.5174 11.263 17.8437C10.9366 18.1701 10.5442 18.3333 10.0859 18.3333Z" fill="white"/>
</g>
</svg>
